<?xml version="1.0" encoding="utf-8"?>
<!-- Generator: Adobe Illustrator 25.4.1, SVG Export Plug-In . SVG Version: 6.00 Build 0)  -->
<svg version="1.0" id="Layer_1" xmlns="http://www.w3.org/2000/svg" xmlns:xlink="http://www.w3.org/1999/xlink" x="0px" y="0px"
	 viewBox="0 0 960 607.6" style="enable-background:new 0 0 960 607.6;" xml:space="preserve">
<style type="text/css">
	.st0{fill:#F24711;}
	.st1{fill:#0B0B21;}
	.st2{fill:none;}
</style>
<g id="svg_2">
	<path id="svg_3" class="st0" d="M239.4,351.5l-28.9-26l0,0l-2.1-2.1l0.1,0.8l-0.1-0.9l-0.8-5.5l-8.7-62.3l0.4,0.4l28.9,26l0,0
		l2.1,2.1l-0.1-0.8l0.1,0.9l0.8,5.5l8.6,62.3L239.4,351.5z M305.6,185.2l-74-19.7c-10.1-2.7-17.1,3.6-15.6,13.9l11.3,81.5l-0.4-0.6
		l-0.1-0.1L193.1,224c-0.1-0.1-0.1-0.1-0.2-0.2c-3.1-3.7-8.1-3.4-13.2,1.8l-29.9,30.1c-7.3,7.4-14.5,21.8-16,32.1l-16.2,111
		c-1.5,10.3,5.5,20.9,15.5,23.6l74,19.7c10.1,2.7,17.1-3.6,15.6-13.9l-11.3-81.5l0.4,0.6l0.1,0.1l33.6,36.2c0.1,0.1,0.1,0.1,0.2,0.2
		c3.1,3.7,8.1,3.4,13.2-1.8l29.9-30.1c7.3-7.4,14.5-21.8,16-32.1l16.1-110.9C322.6,198.5,315.6,187.9,305.6,185.2L305.6,185.2z"/>
	<path id="svg_4" class="st1" d="M449.1,387.7c-0.4,2.5-2.5,4.3-5.1,4.4H419c-2.1,0.1-3.8-1.6-3.9-3.7c0-0.3,0-0.5,0.1-0.8
		l12.6-89.5c0.1-1.7-0.5-3.4-1.7-4.6c-1.2-1-1.5-1-1.5-1c-2.4-0.2-6.4-0.5-8.8-0.5h-13.2c-3.1,0-6.2,0.2-9.3,0.7l-3.1,0.5
		c-2.5,0.8-4.3,2.8-4.7,5.4l-12.4,89c-0.4,2.5-2.5,4.3-5,4.4h-25c-2.1,0-3.8-1.6-3.9-3.7c0-0.2,0-0.5,0.1-0.7L355,272.9
		c0.4-2.5,2.5-4.3,5-4.4h21.8c2.5,0,4.4,2,4.4,4.5v8.2c3.8-4.9,9.1-8.5,15.1-10.1c6.2-1.7,18.1-2.4,18.1-2.4
		c2.4-0.1,6.4-0.2,8.9-0.2h7.2c4.6-0.1,9.1,0.4,13.5,1.5c3.1,0.8,6.1,2.3,8.5,4.5c2.1,2,3.6,4.6,4.3,7.4c0.5,2,0.8,4.1,0.9,6.2
		c0.1,3,0,5.9-0.4,8.9L449.1,387.7L449.1,387.7z"/>
	<path id="svg_5" class="st1" d="M530.3,240.6c-0.5,2.6-2.8,4.5-5.5,4.6h-27.3c-2.2,0.1-4.1-1.6-4.2-3.8c0-0.3,0-0.5,0-0.8l3-20.6
		c0.5-2.6,2.8-4.6,5.5-4.6h27.3c2.2-0.1,4.1,1.6,4.2,3.8c0,0.3,0,0.5,0,0.8L530.3,240.6z M508.6,387.6c-0.5,2.6-2.8,4.5-5.5,4.6
		h-27.3c-2.2,0.1-4.1-1.6-4.2-3.8c0-0.3,0-0.5,0-0.8L489,269.2c0.5-2.6,2.8-4.5,5.5-4.6h27.3c2.2-0.1,4.1,1.6,4.2,3.8
		c0,0.3,0,0.5,0,0.8L508.6,387.6z"/>
	<path id="svg_6" class="st1" d="M628.6,286.8c-0.4,2.5-2.6,4.4-5.1,4.5h-30.7c-2.6,0.1-4.7,1.9-5.2,4.5l-9,61.8v3.2
		c0,1,0.2,2.1,0.6,3c0.4,0.9,1.2,1.7,2.1,2.2l1,0.5c2,0.1,5.6,0.3,8.1,0.3h21.5c2.1-0.1,3.9,1.6,4,3.7c0,0.3,0,0.5-0.1,0.8l-1.8,13
		c-6.8,3.4-14.1,5.7-21.6,6.7c-5.6,0.8-11.2,1.2-16.9,1.3c-4.3,0-8.7-0.2-13-0.8c-3.6-0.4-7.1-1.6-10.2-3.5
		c-2.9-1.9-5.2-4.6-6.6-7.8c-1.6-3.5-2-9.2-2-9.2c-0.2-3-0.1-6,0.3-9l9.6-66.2c0.4-2.1-1-4-3.1-4.4c-0.3,0-0.5-0.1-0.8-0.1h-12.5
		c-2.1,0.1-3.9-1.6-3.9-3.7c0-0.2,0-0.5,0-0.7l1.8-13c0.4-2.5,2.6-4.4,5.1-4.5h12.5c2.6-0.1,4.8-2,5.2-4.5l3.4-23.9
		c0.5-2.6,2.5-4.6,5.1-5l25.5-2.8c1.8-0.3,3.5,0.9,3.9,2.7c0.1,0.4,0.1,0.9,0,1.3l-4,27.7c-0.4,2.1,1,4.1,3.1,4.4
		c0.2,0,0.5,0.1,0.8,0.1h30.7c2.1-0.1,3.9,1.6,3.9,3.7c0,0.3,0,0.5-0.1,0.8L628.6,286.8z"/>
	<path id="svg_7" class="st1" d="M724.7,292.6c-0.5,2.6-2.8,4.4-5.4,4.4h-12c-1.7,0-4.1,0.1-7.2,0.2c-3.2,0.2-6.5,0.4-10.1,0.7
		s-7,0.6-10.4,1l-3.4,0.4c-2.7,0.7-4.7,2.8-5.3,5.5l-12.7,82.8c-0.5,2.6-2.8,4.4-5.4,4.4h-27c-2.1,0.1-4-1.5-4.1-3.6
		c0-0.3,0-0.6,0-0.8l17.2-114.8c0.5-2.6,2.8-4.4,5.4-4.4h23.2c2.5-0.1,4.7,1.9,4.8,4.5v9.9c5.4-3.9,11.1-7.2,17.2-9.8
		c6.7-3,14.8-4.4,24.2-4.5h9.7c2.1-0.1,4,1.5,4.1,3.6c0,0.3,0,0.5,0,0.8L724.7,292.6z"/>
	<path id="svg_8" class="st1" d="M795.3,292.8h-18.2c-3.6-0.1-7.1,0.7-10.3,2.3c-1.7,1-3,2.6-3.7,4.4c-1,2.8-1.7,5.7-2.2,8.6
		l-7.9,51.4c0,2.5,1.3,4.7,3.4,6c1.5,1,3.2,1.6,5,1.8c2.5,0.3,6.6,0.5,9.1,0.5h13.4c3.6,0.1,7.2-0.7,10.4-2.4c1.7-1,3-2.5,3.7-4.3
		c0.9-2.8,1.6-5.7,2.1-8.6l7.9-50.9C807.9,295.7,803.7,292.8,795.3,292.8z M834.7,353.5c-1.1,7.5-3.2,13.7-6.3,18.7
		c-2.9,4.8-6.9,8.9-11.7,11.9c-5,3-10.6,5.1-16.4,6.2c-5.1,0.8-10.3,1.4-15.5,1.6c-2.5,0.1-6.6,0.2-9.1,0.2h-13.4
		c-6.3,0.1-12.6-0.5-18.9-1.6c-4.9-0.8-9.6-2.7-13.7-5.4c-3.7-2.5-6.7-6.1-8.4-10.3c-1.8-4.3-2.4-12.1-2.4-12.1
		c-0.2-3-0.1-5.9,0.3-8.9l7.2-49.6c0.7-6,3-11.7,6.5-16.7c3.3-4.5,7.5-8.3,12.3-11.1c5-2.9,10.5-5,16.1-6.2c4.5-0.9,9-1.4,13.6-1.7
		c2.5-0.1,6.6-0.2,9.1-0.2h16c5.8,0,11.5,0.5,17.2,1.7c4.8,0.9,9.4,2.8,13.5,5.5c3.7,2.5,6.8,6,8.8,10c2.2,4.1,2.8,10.9,2.8,10.9
		c0.2,3,0.1,5.9-0.3,8.9L834.7,353.5L834.7,353.5z"/>
</g>
<rect x="85" y="143.3" class="st2" width="790" height="321"/>
</svg>
